inDegrees=no
num_controls=7
num_derivatives=13
num_iterations=143
num_multipliers=7
num_parameters=0
num_slacks=7
num_states=26
objective=4.845599
objective_accelerations=0.576687
objective_balance=0.042671
objective_effort=0.474132
objective_height=3.717566
objective_ligament=0.034543
solver_duration=1543.014716
status=Solve_Succeeded
success=true
DataType=double
version=3
OpenSimVersion=4.4-2022-07-23-0e9fedc
endheader
time	/jointset/ground_pelvis/pelvis_tilt/value	/jointset/ground_pelvis/pelvis_tx/value	/jointset/ground_pelvis/pelvis_ty/value	/jointset/hip_l/hip_flexion_l/value	/jointset/hip_l/hip_adduction_l/value	/jointset/hip_l/hip_rotation_l/value	/jointset/back/lumbar_extension/value	/jointset/patellofemoral_l/patellar_flexion_l/value	/jointset/knee_l/knee_flexion_l/value	/jointset/knee_l/knee_adduction_l/value	/jointset/knee_l/knee_rotation_l/value	/jointset/ankle_l/ankle_angle_l/value	/jointset/subtalar_l/subtalar_angle_l/value	/jointset/ground_pelvis/pelvis_tilt/speed	/jointset/ground_pelvis/pelvis_tx/speed	/jointset/ground_pelvis/pelvis_ty/speed	/jointset/hip_l/hip_flexion_l/speed	/jointset/hip_l/hip_adduction_l/speed	/jointset/hip_l/hip_rotation_l/speed	/jointset/back/lumbar_extension/speed	/jointset/patellofemoral_l/patellar_flexion_l/speed	/jointset/knee_l/knee_flexion_l/speed	/jointset/knee_l/knee_adduction_l/speed	/jointset/knee_l/knee_rotation_l/speed	/jointset/ankle_l/ankle_angle_l/speed	/jointset/subtalar_l/subtalar_angle_l/speed	/forceset/tau_hip_flexion_l	/forceset/tau_hip_adduction_l	/forceset/tau_hip_rotation_l	/forceset/tau_knee_flexion_l	/forceset/tau_ankle_angle_l	/forceset/tau_subtalar_angle_l	/forceset/tau_lumbar_extension	lambda_cid13_p0	lambda_cid13_p1	lambda_cid13_p2	lambda_cid13_p3	lambda_cid13_p4	lambda_cid13_p5	lambda_cid14_p0	/jointset/ground_pelvis/pelvis_tilt/accel	/jointset/ground_pelvis/pelvis_tx/accel	/jointset/ground_pelvis/pelvis_ty/accel	/jointset/hip_l/hip_flexion_l/accel	/jointset/hip_l/hip_adduction_l/accel	/jointset/hip_l/hip_rotation_l/accel	/jointset/back/lumbar_extension/accel	/jointset/patellofemoral_l/patellar_flexion_l/accel	/jointset/knee_l/knee_flexion_l/accel	/jointset/knee_l/knee_adduction_l/accel	/jointset/knee_l/knee_rotation_l/accel	/jointset/ankle_l/ankle_angle_l/accel	/jointset/subtalar_l/subtalar_angle_l/accel	gamma_cid13_p0	gamma_cid13_p1	gamma_cid13_p2	gamma_cid13_p3	gamma_cid13_p4	gamma_cid13_p5	gamma_cid14_p0
0	-0.1574027584681055	0.05754646067635168	0.8979071220842977	0.3774920279260975	-0.2604531774467024	-0.2503373725333957	-0.0126506700172305	0.03223623128433735	0.03223623128433527	-0.1745328374331585	0.1529319151263823	-0.04231376238535053	-0.01084149253476407	0	0	0	0	0	0	0	0	0	0	0	0	0	0.1377913803713671	-0.06542006843646433	-0.0421760453507735	-0.266894659518509	0.2388028945244058	-0.03244105317362111	-0.08948951785686254	35.06143471580683	2.484612283587984	5.444420123977639	17.40646752011413	-583.1187664650836	-69.42884162183319	-38.41369879779411	-4.399805911705577	-2.685706642554174	-1.242453826149147	13.99618254412084	-1.287836183097232	3.180321845706216	-6.325811360149205	10.29013383627405	10.29013383627383	0.1062287999666968	0.3391955992021474	0.803340589546269	-1.131628200767426	-1.271839985246903e-08	1.226030634035354e-07	6.233361153078363e-08	-1.344837125767873e-08	1.350917454627928e-07	4.04891046010951e-08	-7.822718244664229e-09
0.01	-0.157615099489051	0.0574143616040558	0.8978464076757923	0.3781743030606317	-0.2605176290299362	-0.2501788404271473	-0.01296789554705013	0.03273937546039965	0.03273937546048766	-0.1745302161433208	0.1529457094759536	-0.04227548658628823	-0.01089854848182143	-0.04225545272202547	-0.02624159759546694	-0.01209619319845382	0.1357599707428868	-0.01283424983786292	0.03157768649378874	-0.06298048753502089	0.1001978188642631	0.1001978188642619	0.0005052222586534727	0.002743217355426174	0.007707552264119714	-0.0113429437574404	0.1333911008261894	-0.07307697424502509	-0.04162000733483022	-0.2642607873650658	0.2358334566964549	-0.02292563028951824	-0.0853851672368332	34.46384054687773	-1.321175595077184	5.797444188421984	16.21688373939832	-584.4515501096255	-76.85055985453421	-38.42859692354434	-4.106510870900521	-2.566656477178663	-1.186171772899467	13.26163982681169	-1.272831653563895	3.127175880461251	-6.214474686778255	9.819955021508981	9.819955021508937	0.01983822455815861	0.2395328243206706	0.7623219391245316	-1.125417147914293	-4.803747213978806e-08	1.30795735651482e-07	1.219862862982104e-07	1.640427259772516e-08	-3.888458033849518e-08	3.0068788825041e-08	-1.864962853052797e-08
0.02	-0.1582436142209052	0.057025192523979	0.8976661373940594	0.3801933250001271	-0.2607087455654451	-0.2497083946901612	-0.01390098739954253	0.03423156764726331	0.03423156764726418	-0.1745231087739922	0.1529864656030165	-0.04215856338573046	-0.01106699180338977	-0.08323474218215796	-0.05141400155618153	-0.02391117464549331	0.2673493609832709	-0.02533299045311791	0.06238272615744898	-0.1231732645341017	0.1978096021288037	0.1978096021288092	0.00089721594705187	0.00539235553517955	0.01572948029943452	-0.02227747490216308	0.1289908212815842	-0.08073388005337451	-0.04106396931978112	-0.2616269152110076	0.2328640188687468	-0.01341020740514241	-0.08128081661658387	33.95392321303199	-5.142487295105607	6.153142824512944	14.90627713520454	-584.4247611124134	-84.16414615676699	-38.47253539554256	-4.14457325932738	-2.471867915603355	-1.186211475866265	13.16206644362038	-1.220734338575435	3.025792479680571	-5.76826925296151	9.772926716329593	9.772926716330931	0.08358308591611746	0.3203797640675318	0.8662157437857867	-1.049945678223557	-8.33565444271071e-08	1.389884078994286e-07	1.816389610656372e-07	4.625691645312904e-08	-2.128609061397832e-07	1.964847304898689e-08	-2.947653881639172e-08
0.03	-0.1592757737669005	0.05638922235757446	0.8973687811995861	0.3835084459252561	-0.2610227475512896	-0.2489338661607324	-0.01542195741197746	0.03668712692512888	0.03668712692510517	-0.1745121223262847	0.1530533319811669	-0.04196033399471856	-0.01134246061496358	-0.1229641835927793	-0.07564137885582692	-0.03554024118246333	0.3950167063436812	-0.03738257576290194	0.09238467903402807	-0.1805892499482371	0.2928629538358332	0.2928629538358516	0.001304074140269297	0.007966410277097179	0.02391218037006891	-0.03273532065440283	0.1225546500579547	-0.07580554336918464	-0.04017284349492233	-0.2561074499961057	0.2278091142749721	-0.01499491128052389	-0.07593159539288366	32.32145881329488	-4.279953979717615	6.143031538571778	15.02282193397628	-584.1733430128792	-81.50241089187415	-38.54399753885141	-3.852190395574178	-2.377365333645416	-1.148324057816699	12.47033818389761	-1.18437230443476	2.966625447688283	-5.663539985932865	9.305650396635961	9.305650396636938	0.01987527783180727	0.2237175737257565	0.7936604443264206	-1.031600999926001	-1.051530753138079e-07	1.547640185124683e-07	2.112390146790411e-07	6.692318857733545e-08	-3.292374924949591e-07	2.635525856122236e-08	-3.447906585719645e-08
0.04	-0.1606982398896966	0.05551513987887455	0.8969557203767017	0.3880804942243153	-0.2614547057256857	-0.2478634723513196	-0.01750414263861312	0.0400800419197548	0.04008004191975209	-0.1744969396783064	0.1531454987557064	-0.04168040494187309	-0.01172008727929981	-0.1612960575492617	-0.09903646401525552	-0.04705210032772244	0.5187348357699405	-0.04892422816289606	0.1215557821522805	-0.2354163073741725	0.3852807454927267	0.3852807454927492	0.001736456005731305	0.01045243479788123	0.03206941266567762	-0.04270904545473929	0.1161184788340065	-0.07087720668501914	-0.03928171766971985	-0.2505879847814423	0.2227542096811257	-0.01657961515595033	-0.07058237416937911	30.76864150884716	-3.429751905957023	6.133044419714353	15.02043215843689	-582.7031837113187	-78.73656169844723	-38.64127139882758	-3.86505976850008	-2.305409487559585	-1.162769997524118	12.37222325679018	-1.11914775661785	2.859622528015295	-5.250483655321867	9.24581470630244	9.245814706302008	0.08868782036426777	0.3027737198408245	0.8611221887810641	-0.9531214878431923	-1.26670790913898e-07	1.706959783701492e-07	2.402194266191661e-07	8.740005097512545e-08	-4.444264553564008e-07	3.341518018249472e-08	-3.936150252181438e-08
0.05	-0.1624977024329645	0.05441131573822165	0.8964278319488973	0.3938710777938885	-0.2619993037240522	-0.2465055452931926	-0.0201212276946259	0.04438451772790165	0.04438451772792368	-0.1744770023316094	0.1532622696216863	-0.04131877653847878	-0.01219475962193478	-0.1983714969435895	-0.1215807022893404	-0.05852560972235512	0.6387271367373389	-0.05989870995487289	0.1498937712928282	-0.2875854537468701	0.4751685823008003	0.4751685823007943	0.002252045812606893	0.01288158131036047	0.04025569318258006	-0.05213391440695381	0.1096121656431328	-0.06946729312721175	-0.03844098888828874	-0.2461476309404489	0.2184167246583033	-0.01486117535368186	-0.06519171311399904	29.57285662768405	-3.977099070328792	6.232187323047238	14.67679682941384	-581.3429505289143	-78.82467462720534	-38.7621354241947	-3.59505059542505	-2.206764077063531	-1.139734900032728	11.71450554650432	-1.072127040836852	2.800473058533786	-5.137842617067598	8.793401004194429	8.793401004190166	0.03319614370954114	0.2099280590300445	0.7972880808127925	-0.9234963858581645	-1.412802421980867e-07	1.876756660470438e-07	2.549487720164347e-07	1.035418966687201e-07	-5.197663138374519e-07	4.137349229296135e-08	-4.121140845586765e-08
0.06	-0.1646611722842335	0.05308648259888234	0.895785189729228	0.4008419387791231	-0.2626507522704148	-0.2448683211533711	-0.02324754671211881	0.04957449847138307	0.04957449847138785	-0.1744518687702366	0.1534027205411702	-0.04087530391037944	-0.01276094601148074	-0.2340975191591037	-0.1432382637525379	-0.07000285870072442	0.7547903188962813	-0.07029433776083963	0.1774151984917665	-0.3372630996725872	0.5623817325542799	0.5623817325542484	0.002775698933853177	0.01518844550598311	0.04843825760621551	-0.06101185483709407	0.1031058524522798	-0.06805737956942655	-0.03760026010699684	-0.2417072770993708	0.2140792396355055	-0.01314273555142757	-0.05980105205862137	28.44603595464591	-4.534851788074124	6.331083739656977	14.22489987830049	-578.9213531165599	-78.8175489326233	-38.90419135101774	-3.595176332737881	-2.128074125381796	-1.16351791427148	11.586399495099	-1.003376959416195	2.696310139693499	-4.75218356592617	8.710877395383731	8.710877395383877	0.09030048323770351	0.2783172564695075	0.860378970127977	-0.8437357834286336	-1.5559881919529e-07	2.046994685794842e-07	2.690780725066356e-07	1.195012153431907e-07	-5.934283152919602e-07	4.936963137139403e-08	-4.293362888547609e-08
